# xmcd
#
# Track frame offsets: 
#        150
#        13027
#        31715
#        50442
#        71800
#        88427
#        109617
#        132887
#        149970
#        167495
#        183875
#        213562
#        236397
#        266820
#        285007
#
# Disc length: 4435 seconds
#
# Revision: 0
# Processed by: cddbd v1.5.1PL0 Copyright (c) Steve Scherf et al.
# Submitted via: ExactAudioCopy v0.90b4
#
DISCID=d711510f
DTITLE=Ben Harper and The Blind Boys Of Alabama - Live At The Apollo
DYEAR=2005
DGENRE=Gospel
TTITLE0=11th Commandment
TTITLE1=Well, Well, Well
TTITLE2=I Want To Be Ready
TTITLE3=Take My Hand
TTITLE4=Picture Of Jesus
TTITLE5=Church House Steps
TTITLE6=Ben Introduces The Band...
TTITLE7=Give A Man A Home
TTITLE8=Wicked Man
TTITLE9=Mother Pray
TTITLE10=I Shall Not Walk Alone
TTITLE11=Church On Time
TTITLE12=Where Could I Go
TTITLE13=There Will Be A Light
TTITLE14=Satisfied Mind
EXTD=
EXTT0=
EXTT1=
EXTT2=
EXTT3=
EXTT4=
EXTT5=
EXTT6=
EXTT7=
EXTT8=
EXTT9=
EXTT10=
EXTT11=
EXTT12=
EXTT13=
EXTT14=
PLAYORDER=
